<svg xmlns="http://www.w3.org/2000/svg" width="960" height="560" viewBox="0 0 960 560">
  <rect width="960" height="560" fill="#fafcf8"/>
  <rect x="84" y="80" width="300" height="390" rx="20" fill="#fff" stroke="#d9e5d4"/>
  <text x="116" y="128" font-size="26" font-family="Arial, sans-serif" font-weight="700" fill="#18351f">上傳 Trigger Image</text>
  <rect x="116" y="168" width="236" height="64" rx="14" fill="#fff" stroke="#8ba98f" stroke-dasharray="6 5"/>
  <text x="154" y="207" font-size="20" font-family="Arial, sans-serif" fill="#1f3426">Trigger Image</text>
  <path d="M150 314 C188 250 244 250 278 314 C250 292 220 292 190 314 Z" fill="#dbead4"/>
  <rect x="520" y="118" width="286" height="290" rx="18" fill="#f0ebd9" stroke="#d4c9a8"/>
  <circle cx="628" cy="238" r="70" fill="#ffffff" opacity="0.85"/>
  <path d="M580 270 C650 188 710 245 648 320" stroke="#5b6b4b" stroke-width="14" fill="none" opacity="0.65"/>
  <text x="520" y="452" font-size="20" font-family="Arial, sans-serif" fill="#314238">Trigger 圖要清楚、有細節、避免反光。</text>
  <circle cx="238" cy="200" r="44" fill="none" stroke="#e0523c" stroke-width="5"/>
  <path d="M275 224 L492 234" stroke="#e0523c" stroke-width="4" marker-end="url(#arrow)"/>
  <text x="496" y="230" font-size="20" font-family="Arial, sans-serif" font-weight="700" fill="#b33a28">選擇用來被手機掃描的圖片</text>
  <defs><marker id="arrow" markerWidth="10" markerHeight="10" refX="7" refY="3" orient="auto"><path d="M0,0 L0,6 L8,3 z" fill="#e0523c"/></marker></defs>
</svg>
